<?xml version="1.0" encoding="utf-8"?>
<!-- Generator: Adobe Illustrator 19.1.0, SVG Export Plug-In . SVG Version: 6.00 Build 0)  -->
<svg version="1.1" id="Layer_1" xmlns="http://www.w3.org/2000/svg" xmlns:xlink="http://www.w3.org/1999/xlink" x="0px" y="0px"
	 viewBox="-260 134 321 327.3" style="enable-background:new -260 134 321 327.3;" xml:space="preserve">
<style type="text/css">
	.st0{fill:#1CC9C9;}
	.st1{fill:#FFFFFF;}
	.st2{clip-path:url(#SVGID_2_);fill:#1CC9C9;}
	.st3{clip-path:url(#SVGID_4_);fill:#FFFFFF;}
</style>
<path class="st0" d="M-260,273.6h100v25h-100V273.6z M-150,273.6h100v25h-100V273.6z"/>
<path class="st1" d="M-40,273.6H60v25H-40V273.6z"/>
<path class="st0" d="M-260,318.6h100v25h-100V318.6z M-150,318.6h100v25h-100V318.6z"/>
<path class="st1" d="M-40,318.6H60v25H-40V318.6z"/>
<g>
	<defs>
		<rect id="SVGID_1_" x="-260" y="134" width="321" height="327.3"/>
	</defs>
	<clipPath id="SVGID_2_">
		<use xlink:href="#SVGID_1_"  style="overflow:visible;"/>
	</clipPath>
	<path class="st2" d="M-258.5,136.3c8,0,15.9,0,23.9,0c8,0,15.9,0,23.9,0h1.3v21.3h-25v23.8h23.9v21.3h-23.9v50.4h-24V136.3z
		 M-139.2,253h-24.7c-0.9-6.9-1.9-13.7-2.8-20.5h-16.5l-2.4,20.5h-24.8c6.6-38.9,13.2-77.7,19.8-116.6h31.7L-139.2,253
		 M-174.3,156.1h-0.3l-6,55.1h11.4C-171,192.8-172.7,174.4-174.3,156.1 M-78.3,216.4h23.8c0,0.5,0,1,0,1.4c0.1,3.6,0,7.2,0.5,10.8
		c0.6,4.9,5.8,7.2,10.2,4.7c1.8-1,2.4-2.7,2.7-4.6c1.2-7.3-0.7-13.7-6-18.7c-4-3.7-8.4-7-12.6-10.4c-3.9-3.1-7.6-6.4-10.7-10.3
		c-4.5-5.8-6.8-12.4-7.6-19.6c-0.6-5.5-0.4-11,0.6-16.4c0.8-3.9,2.1-7.6,4.7-10.8c3-3.7,7.1-5.8,11.6-6.9c8.8-2.1,17.7-2.2,26.5,0
		c9.5,2.3,14.8,8.7,16.3,18.2c0.6,3.7,0.6,7.4,0.7,11.2c0.1,2.1,0,4.3,0,6.5h-23.2c0-2,0.1-4,0-5.9c-0.1-1.8-0.2-3.6-0.6-5.4
		c-0.8-3.3-2.7-4.7-6.1-4.8c-3.6-0.1-5.5,1.4-6.4,4.8c-0.2,0.9-0.4,1.9-0.4,2.9c-0.3,4.9,1.1,9.1,4.3,12.7c3.4,3.8,7.6,6.7,11.6,9.8
		c4.2,3.1,8.3,6.4,11.7,10.3c5.5,6.3,8.6,13.6,9.5,21.8c0.7,7,0.5,14.1-1.2,21c-1.3,5.4-4,9.9-9,12.8c-3,1.7-6.3,2.6-9.6,3.1
		c-6,0.9-12,0.9-18,0.4c-4.4-0.4-8.6-1.2-12.6-3.2c-5-2.6-8-6.9-9.3-12.2c-0.8-3.4-1.2-6.9-1.4-10.3
		C-78.5,225-78.3,220.7-78.3,216.4 M-13.8,136.3c8.2,0,16.2,0,24.3,0c0.7,0,0.8,0.4,1,0.9c2,6.8,3.9,13.6,5.9,20.5
		c1.9,6.6,3.8,13.2,5.7,19.8c0.1,0.3,0.2,0.5,0.5,0.8c0.2-0.8,0.5-1.6,0.7-2.5c3.6-12.8,7.2-25.5,10.8-38.3c0.3-0.9,0.6-1.3,1.6-1.3
		c7.5,0.1,15,0,22.5,0h1.3c-0.5,1.3-0.9,2.6-1.3,3.8L37,203.3c0,0.1-0.1,0.3-0.2,0.4c-1.5,3.3-1.8,6.9-1.7,10.5
		c0.1,12.4,0,24.8,0,37.2v1.5H11.3v-1.3c0-14,0-28.1,0-42.1c0-0.7-0.1-1.4-0.4-2.1c-8.2-23.5-16.3-46.9-24.5-70.4
		C-13.7,137-13.7,136.7-13.8,136.3 M-107.5,136.4v95.4h25.1V253h-48.9V136.4"/>
</g>
<g>
	<defs>
		<rect id="SVGID_3_" x="-260" y="134" width="321" height="327.3"/>
	</defs>
	<clipPath id="SVGID_4_">
		<use xlink:href="#SVGID_3_"  style="overflow:visible;"/>
	</clipPath>
	<path class="st3" d="M61,436.2c-0.1,2-0.2,4-0.4,6c-0.4,3.6-1.1,7.1-2.8,10.3c-2.3,4.2-6,6.5-10.5,7.5c-7.5,1.7-15.1,1.6-22.6,0.2
		c-7.4-1.4-12-6.3-13.3-13.8c-1-5.6-0.5-11.3-0.7-17h19.5c0,0.4,0,0.9,0,1.3c0.1,2.9,0,5.8,0.4,8.6c0.5,3.9,4.3,5.7,7.9,4.1
		c1.8-0.9,2.5-2.5,2.7-4.3c0.9-6-0.8-11.2-5.2-15.2c-3.5-3.2-7.4-5.9-11-9c-2.6-2.3-5.2-4.6-7.5-7.3c-3.5-4-5.4-8.9-6.2-14.2
		c-1-6.4-1-12.9,1-19.1c2-6,6.2-9.5,12.2-10.9c3-0.7,6.1-0.8,9.1-1.2c0.6-0.1,1.2-0.1,1.8-0.2h0.9c0.5,0.1,1.1,0.1,1.6,0.2
		c2.9,0.4,5.8,0.5,8.6,1.2c7.2,1.7,11.9,7,13.2,14.3c0.9,4.9,0.6,9.8,0.6,14.7c0,0.1-0.1,0.1-0.1,0.2H41.4c0-1.7,0.1-3.3,0-4.9
		c-0.1-1.7-0.2-3.3-0.7-4.9c-0.6-2.2-2.3-3.2-4.9-3.3c-2.6,0-4.3,0.9-5,3c-0.9,2.9-0.9,5.8,0,8.7c0.9,2.7,2.6,4.9,4.7,6.7
		c2.9,2.5,6,4.8,9,7.1c3.5,2.7,6.8,5.5,9.5,9c4,5.1,6.1,10.9,6.6,17.4c0.1,1.2,0.2,2.3,0.3,3.5V436.2L61,436.2z M-65,363.9h19.4
		c0,0.4,0.1,0.8,0.1,1.2c0,24.3,0,48.6,0,72.9c0,3.5-0.2,7-1.1,10.4c-1.7,6.3-5.8,10.1-12,11.6c-5.8,1.4-11.6,1.4-17.5,1
		c-3.5-0.2-6.9-0.8-10.1-2.2c-5.1-2.3-7.8-6.4-8.7-11.7c-0.5-3-0.8-6.2-0.8-9.3c-0.1-24.2,0-48.4,0-72.6v-1.3h19.5v1.4
		c0,23.2,0,46.4,0,69.7c0,1.9,0.3,3.9,0.6,5.8c0.3,1.6,1.4,2.6,3,2.8c1.2,0.1,2.4,0.2,3.6,0.1c1.8-0.2,3-1.3,3.3-3.1
		c0.3-1.9,0.6-3.8,0.6-5.7c0-23.1,0-46.3,0-69.4L-65,363.9L-65,363.9z M-164.3,363.9l16.2,95.3h-20.2c-0.7-5.5-1.5-11.1-2.3-16.7
		h-13.5l-2,16.7h-20.3l16.2-95.4L-164.3,363.9L-164.3,363.9z M-172.7,425l-4.1-45c-0.1,0-0.2,0-0.3,0l-4.9,45
		C-182.1,425-172.7,425-172.7,425z M-216.4,459.3h-26l-16.2-95.4h20.2l8.8,73.7h0.3l9.1-73.8h19.9
		C-205.6,395.7-211,427.4-216.4,459.3 M-35,363.9H5v17.3h-20.5v19.6H4.1v17.4h-19.6v23.8H5v17.4h-40 M-101.6,459.3h-40v-95.4h19.4
		v78h20.6"/>
</g>
</svg>
