<svg xmlns="http://www.w3.org/2000/svg" xmlns:xlink="http://www.w3.org/1999/xlink" width="321" height="327.31" viewBox="0 0 321 327.31"><path fill="#1CC9C9" d="M0 139.655h100v25H0zM110 139.655h100v25H110z"/><path fill="#312384" d="M220 139.655h100v25H220z"/><path fill="#1CC9C9" d="M0 184.655h100v25H0zM110 184.655h100v25H110z"/><path fill="#312384" d="M220 184.655h100v25H220z"/><defs><path id="a" d="M0 0h321v327.31H0z"/></defs><clipPath id="b"><use xlink:href="#a" overflow="visible"/></clipPath><path clip-path="url(#b)" fill="#1CC9C9" d="M1.498 2.342c7.967.01 15.934.02 23.9.025 7.97.005 15.937 0 23.904 0h1.265v21.278H25.53v23.822h23.88v21.29H25.477v50.353H1.498V2.342zM120.796 119.056H96.12c-.93-6.852-1.852-13.66-2.78-20.51H76.827L74.38 119.02H49.542C56.128 80.152 62.714 41.29 69.302 2.42h31.728l19.766 116.636M85.666 22.1h-.347l-6.035 55.104H90.72c-1.69-18.42-3.373-36.762-5.054-55.103M181.656 82.39h23.804c0 .503-.014.972.003 1.44.13 3.587 0 7.207.46 10.752.635 4.935 5.846 7.2 10.158 4.665 1.76-1.03 2.433-2.74 2.746-4.602 1.23-7.278-.7-13.683-6.048-18.715-3.953-3.718-8.353-6.967-12.604-10.36-3.892-3.106-7.63-6.352-10.68-10.325-4.456-5.8-6.836-12.403-7.57-19.62-.56-5.478-.443-10.954.6-16.378.757-3.93 2.11-7.624 4.69-10.768 3.04-3.706 7.063-5.815 11.633-6.885 8.83-2.068 17.726-2.18 26.528-.02 9.48 2.325 14.828 8.678 16.274 18.213.557 3.68.563 7.447.732 11.18.098 2.135.018 4.28.018 6.482h-23.18c0-1.997.077-3.954-.023-5.903-.093-1.802-.185-3.643-.615-5.383-.83-3.348-2.734-4.714-6.147-4.776-3.595-.065-5.534 1.354-6.45 4.81-.244.925-.375 1.893-.443 2.85-.344 4.852 1.09 9.1 4.345 12.748 3.41 3.824 7.6 6.704 11.65 9.754 4.18 3.148 8.267 6.394 11.732 10.348 5.493 6.265 8.643 13.57 9.465 21.834.7 7.043.46 14.07-1.227 20.978-1.32 5.407-3.968 9.95-8.962 12.81-2.994 1.716-6.264 2.62-9.646 3.136-5.967.908-11.967.918-17.962.426-4.366-.36-8.645-1.172-12.595-3.233-5.03-2.624-8.043-6.855-9.274-12.248-.77-3.37-1.173-6.858-1.358-10.313-.23-4.246-.056-8.513-.056-12.9M246.183 2.37c8.172 0 16.213.01 24.254-.02.737-.002.838.413.984.923 1.958 6.82 3.916 13.642 5.88 20.46 1.9 6.607 3.807 13.21 5.715 19.814.08.273.196.536.528.827.248-.82.508-1.637.74-2.46 3.62-12.766 7.244-25.53 10.843-38.3.253-.9.6-1.284 1.638-1.276 7.486.057 14.972.03 22.458.03h1.28c-.46 1.342-.88 2.582-1.313 3.818L297.035 69.38c-.05.138-.098.278-.16.412-1.543 3.34-1.772 6.854-1.74 10.492.104 12.414.04 24.83.04 37.245v1.507h-23.872v-1.27c0-14.047.005-28.093-.015-42.138-.002-.686-.13-1.402-.356-2.05-8.16-23.455-16.337-46.904-24.51-70.355-.084-.24-.14-.49-.24-.856M152.452 2.436v95.356h25.104v21.25H128.62V2.437"/><path clip-path="url(#b)" fill="#312384" d="M321 302.233c-.143 1.99-.243 3.986-.438 5.973-.35 3.597-1.063 7.105-2.823 10.316-2.294 4.186-5.988 6.497-10.505 7.518-7.518 1.7-15.09 1.63-22.628.173-7.417-1.436-11.955-6.32-13.297-13.83-1.006-5.633-.534-11.293-.697-17.014h19.513c0 .426-.013.852.003 1.276.107 2.886.003 5.802.387 8.65.53 3.926 4.282 5.732 7.902 4.053 1.83-.85 2.458-2.51 2.722-4.313.868-5.954-.804-11.163-5.226-15.21-3.49-3.195-7.405-5.924-10.986-9.026-2.624-2.273-5.208-4.65-7.46-7.283-3.46-4.048-5.436-8.89-6.22-14.154-.96-6.436-1.02-12.858 1.038-19.132 1.963-5.982 6.25-9.535 12.246-10.933 2.972-.693 6.072-.836 9.115-1.223.582-.074 1.17-.12 1.754-.18h.89c.548.057 1.097.103 1.642.176 2.857.376 5.764.543 8.56 1.183 7.232 1.652 11.946 7.01 13.217 14.344.85 4.906.58 9.824.614 14.746 0 .06-.065.122-.114.21h-18.817c0-1.69.087-3.318-.023-4.935-.112-1.652-.25-3.336-.677-4.927-.584-2.183-2.337-3.24-4.85-3.27-2.594-.032-4.335.943-5.013 3.04-.936 2.892-.913 5.823.018 8.732.876 2.735 2.58 4.938 4.714 6.745 2.91 2.463 5.953 4.77 8.972 7.1 3.47 2.683 6.81 5.496 9.52 8.975 3.98 5.106 6.123 10.924 6.615 17.366.09 1.175.22 2.347.332 3.52v1.335zM194.97 229.935h19.44c.02.44.054.835.054 1.23.002 24.297.005 48.594-.002 72.89 0 3.488-.195 6.95-1.086 10.358-1.657 6.332-5.776 10.07-12.018 11.615-5.758 1.424-11.613 1.353-17.472 1.004-3.488-.207-6.918-.79-10.14-2.236-5.07-2.276-7.785-6.404-8.722-11.688-.54-3.048-.807-6.183-.814-9.278-.064-24.187-.036-48.37-.036-72.556v-1.348h19.524v1.42c0 23.222-.015 46.442.026 69.663.004 1.945.27 3.91.62 5.83.29 1.587 1.39 2.62 3.046 2.798 1.206.13 2.444.205 3.646.078 1.8-.19 3.04-1.254 3.335-3.065.31-1.89.57-3.815.572-5.727.038-23.146.025-46.293.025-69.44v-1.548zM95.712 229.952l16.155 95.34H91.68c-.746-5.507-1.5-11.065-2.266-16.702H75.9l-2.01 16.72H53.574l16.158-95.357h25.982zm-8.444 61.118l-4.14-45.05c-.095 0-.19.003-.285.005L77.91 291.07h9.358zM43.622 325.333H17.658L1.498 229.97h20.19l8.807 73.736h.29l9.077-73.772h19.924c-5.39 31.8-10.766 63.54-16.164 95.4M225.025 229.92h39.982v17.303h-20.472v19.563h19.55v17.374h-19.56v23.793h20.49v17.356h-39.99M158.403 325.347h-39.996v-95.395h19.41v78.003h20.586"/></svg>