<?xml version="1.0" encoding="utf-8"?>
<!-- Generator: Adobe Illustrator 19.1.0, SVG Export Plug-In . SVG Version: 6.00 Build 0)  -->
<svg version="1.1" id="Layer_1" xmlns="http://www.w3.org/2000/svg" xmlns:xlink="http://www.w3.org/1999/xlink" x="0px" y="0px"
	 viewBox="0 0 99.2 82.2" style="enable-background:new 0 0 99.2 82.2;" xml:space="preserve">
<style type="text/css">
	.st0{fill:#D22027;}
	.st1{fill:#B72026;}
	.st2{fill:#A71F25;}
	.st3{fill:#E71F27;}
	.st4{fill:#A11E25;}
	.st5{fill:#D72027;}
	.st6{fill:#C72127;}
	.st7{fill:#B82026;}
	.st8{fill:#D81F27;}
	.st9{fill:#9B1C26;}
	.st10{fill:#CB2127;}
	.st11{fill:#D52027;}
	.st12{fill:#DF1F27;}
	.st13{fill:#A41E25;}
	.st14{fill:#C42127;}
	.st15{fill:#911C24;}
	.st16{fill:#D42027;}
	.st17{fill:#E42027;}
	.st18{fill:#DC1F26;}
	.st19{fill:#FFFFFF;}
</style>
<g>
	<g>
		<polyline class="st0" points="1.9,12.7 32.3,1.7 0,4.9 		"/>
		<polygon class="st1" points="32.3,1.7 39.4,1 20.1,23.5 2.3,14.7 1.9,12.7 		"/>
		<polygon class="st2" points="2.3,14.7 6.6,33 20.1,23.5 		"/>
		<polygon class="st3" points="39.4,1 41.6,0.8 27.7,44.5 20.1,23.5 		"/>
		<polygon class="st0" points="20.1,23.5 6.6,33 9.5,46 27,42.5 		"/>
		<polygon class="st4" points="41.6,0.8 43.2,0.6 48,37.8 27.7,44.5 		"/>
		<polygon class="st5" points="43.2,0.6 49.7,0 49.7,9.7 60.7,8.7 48,37.8 		"/>
		<polygon class="st6" points="9.5,46 12.9,60.8 20.1,62.8 27.7,44.5 27,42.5 		"/>
		<polygon class="st7" points="12.9,60.8 14.4,67.2 20.1,62.8 		"/>
		<polygon class="st0" points="20.1,62.8 32.9,79 16.4,75.8 14.4,67.2 		"/>
		<polygon class="st8" points="27.7,44.5 20.1,62.8 32.9,79 39.4,80.3 28.9,44.1 		"/>
		<polygon class="st9" points="28.9,44.1 39.4,80.3 45.2,81.4 48,62.8 29.8,43.8 		"/>
		<polygon class="st10" points="48,62.8 45.2,81.4 49.4,82.2 58.6,80.4 		"/>
		<polygon class="st11" points="78.6,56.6 31.7,43.2 29.8,43.8 48,62.8 		"/>
		<polygon class="st12" points="48,62.8 58.6,80.4 73.3,77.6 78.6,56.6 		"/>
		<polygon class="st13" points="78.6,56.6 73.3,77.6 82.6,75.8 86,61.3 		"/>
		<polygon class="st6" points="78.6,56.6 87.7,54 86,61.3 		"/>
		<polygon class="st14" points="48,37.8 31.7,43.2 78.6,56.6 		"/>
		<polygon class="st3" points="48,37.8 78.6,56.6 70.8,7.7 60.7,8.7 		"/>
		<polygon class="st15" points="70.8,7.7 78.6,56.6 79.2,23.5 73.9,7.4 		"/>
		<polygon class="st16" points="79.2,23.5 78.6,56.6 87.7,54 93.4,29.6 		"/>
		<polygon class="st17" points="79.2,23.5 95.5,20.6 93.4,29.6 		"/>
		<polygon class="st18" points="73.9,7.4 79.2,23.5 95.5,20.6 97.8,10.8 90.2,5.8 		"/>
		<polygon class="st1" points="90.2,5.8 99.2,5 97.8,10.8 		"/>
	</g>
	<path class="st19" d="M75.7,24.7l-5.8,45l-8.5,1.5l3.2-45.2l-15.3,1.7v-0.1l0,0v0.1L26,24.4l1.5,11.8l22.2,3.3v9.3l-21.1-3.3
		l2.8,23.9l-8.7-1.6l-9.7-54.3l36.3,4.3l40.9-4.3l-1.8,9.7L75.7,24.7z"/>
</g>
</svg>
